<svg viewBox="0 0 470 200" xmlns="http://www.w3.org/2000/svg">
    <g>
        <line id="svg_2" y2="201.03149" x2="10" y1="0.78825" x1="10" stroke-width="20" stroke="#000000" fill="none"/>
        <line id="svg_3" y2="201.03149" x2="30" y1="0.78825" x1="30" stroke-width="11" stroke="#000000" fill="none"/>
        <line id="svg_4" y2="200.24323" x2="75" y1="-0.00001" x1="75" stroke-width="25" stroke="#000000" fill="none"/>
        <line id="svg_5" y2="201.03149" x2="134" y1="0.78825" x1="134" stroke-width="8" stroke="#000000" fill="none"/>
        <line id="svg_6" y2="201.03149" x2="154" y1="0.78825" x1="154" stroke-width="8" stroke="#000000" fill="none"/>
        <line id="svg_7" y2="201.03149" x2="201" y1="0.78825" x1="201" stroke-width="5" stroke="#000000" fill="none"/>
        <line id="svg_8" y2="201.03149" x2="221" y1="0.78825" x1="221" stroke-width="15" stroke="#000000" fill="none"/>
        <line id="svg_9" y2="201.03149" x2="241" y1="0.78825" x1="241" stroke-width="5" stroke="#000000" fill="none"/>
        <line id="svg_10" y2="201.03149" x2="261" y1="0.78825" x1="261" stroke-width="16" stroke="#000000" fill="none"/>
        <line id="svg_11" y2="201.03149" x2="308" y1="0.78825" x1="308" stroke-width="5" stroke="#000000" fill="none"/>
        <line id="svg_12" y2="201.03149" x2="322" y1="0.78825" x1="322" stroke-width="5" stroke="#000000" fill="none"/>
        <line id="svg_13" y2="201.03149" x2="348" y1="0.78825" x1="348" stroke-width="30" stroke="#000000" fill="none"/>
        <line id="svg_14" y2="201.03149" x2="368" y1="0.78825" x1="368" stroke-width="5" stroke="#000000" fill="none"/>
        <line id="svg_15" y2="201.03149" x2="403" y1="0.78825" x1="403" stroke-width="5" stroke="#000000" fill="none"/>
        <line id="svg_16" y2="201.03149" x2="423" y1="0.78825" x1="423" stroke-width="5" stroke="#000000" fill="none"/>
        <line id="svg_17" y2="201.03149" x2="457" y1="0.78825" x1="457" stroke-width="25" stroke="#000000" fill="none"/>
    </g>
</svg>