<svg viewBox="0 0 350 300" xmlns="http://www.w3.org/2000/svg">
 <g>
  <g id="Barcode_Scanner">
   <g id="svg_1">
    <g id="svg_2">
     <path d="m11.5,265.799988c-4.9,0 -8.8,3.200012 -8.8,8.100006c0,4.899994 4,8.100006 8.8,8.100006h82.5c4.900002,0 8.800003,-4.799988 8.800003,-9.600006c0,-4.899994 -4,-9.600006 -8.800003,-9.600006c-2,0 -3.900002,-1 -5.099998,-2.599976c-1.200005,-1.700012 -1.5,-3.800018 -0.800003,-5.700012c0,0 1,-4.399994 6.300003,-7.800003l5.799995,-4.099991c3.200005,-2.300003 4.800003,-6.200012 4,-10.100006l-2.5,-8.199997c-0.199997,-0.699997 -0.399994,-1.400009 -0.5,-2.199997c0,-0.100006 -0.099998,-0.100006 -0.099998,-0.200012c-0.900002,-6.099991 1.599998,-12.199997 6.700005,-15.899994l5.799995,-4.100006c3.599998,-2.5 5.099998,-7.099991 3.800003,-11.299988l-2.200005,-6.700012c-1,-3 -1,-6.099991 -0.299995,-9.099991c-0.099998,-0.100006 11.099998,-34.400009 11.099998,-34.400009l48.300003,7.200012c5.699997,0.899994 11.699997,-0.800003 16.099991,-4.600006c4.400009,-3.800003 7.300003,-9.300003 7.300003,-15.099998v-71.700001c0,-5.799999 -2.899994,-11.200001 -7.300003,-15c-4.399994,-3.799999 -10.599991,-5.400002 -16.299988,-4.600002l-101.100006,15.200001c-20.099998,3 -35,20.399998 -35,40.700001c0,17.300003 10.799999,32.699997 26.5,38.600006l-42.700001,128.899994c-0.9,2.600006 -3.299999,5.899994 -5.999999,5.899994h-4.3l0,-0.100006l0,0l0,0zm0,0" id="svg_3"/>
    </g>
   </g>
  </g>
  <text fill="#000000" stroke="#000000" stroke-width="0" stroke-linejoin="round" stroke-linecap="null" x="206.12467" y="41.81234" id="svg_5" font-size="24" font-family="Sans-serif" text-anchor="middle" xml:space="preserve" font-weight="bold" font-style="italic" transform="matrix(0.7953091859817505,0,0,0.7953091859817505,45.063962023705244,54.24306571483612) ">Z</text>
  <text fill="#000000" stroke="#000000" stroke-width="0" stroke-linejoin="round" stroke-linecap="null" x="235.5929" y="138.51015" font-size="24" font-family="Sans-serif" text-anchor="middle" xml:space="preserve" font-weight="bold" font-style="italic" transform="matrix(1.2313424401775563,0,0,1.2313424401775563,-60.592342638220444,-87.55631011090706) " id="svg_6">Z</text>
  <text fill="#000000" stroke="#000000" stroke-width="0" stroke-linejoin="round" stroke-linecap="null" x="257.88996" y="211.55079" font-size="24" font-family="Sans-serif" text-anchor="middle" xml:space="preserve" font-weight="bold" font-style="italic" transform="matrix(1.909103727271257,0,0,1.909103727271257,-230.82540414352906,-329.759134689709) " id="svg_7">Z</text>
  <text fill="#000000" stroke="#000000" stroke-width="0" stroke-linejoin="round" stroke-linecap="null" x="271.40185" y="264.87289" font-size="24" font-family="Sans-serif" text-anchor="middle" xml:space="preserve" font-weight="bold" font-style="italic" transform="matrix(3.2646263904312196,0,0,3.2646263904312196,-579.5033709999238,-805.4613353340908) " id="svg_8">Z</text>
 </g>
</svg>