<svg viewBox="0 0 100 96.5" xmlns="http://www.w3.org/2000/svg">
    <g>
        <g>
            <path d="m96.08726,43.15925c2.26675,2.58017 3.40068,5.63128 3.40068,9.15425c0,3.19484 -1.17638,5.95921 -3.52081,8.29512c-2.34955,2.33571 -5.13116,3.50292 -8.34618,3.50292h-17.1254c0.1647,0.57329 0.3296,1.06479 0.49419,1.47429c0.16309,0.40952 0.39213,0.86063 0.67947,1.35204c0.28766,0.49168 0.49441,0.8606 0.61765,1.10587c0.74181,1.39191 1.30947,2.53957 1.7015,3.43999c0.39123,0.90199 0.78085,2.13025 1.17367,3.68681c0.39214,1.55558 0.58703,3.11276 0.58703,4.66924c0,0.98269 -0.01184,1.78197 -0.03141,2.39605c-0.01917,0.61437 -0.12424,1.53622 -0.30801,2.76507c-0.18678,1.22845 -0.43447,2.25259 -0.74281,3.07133c-0.30973,0.81903 -0.80482,1.74141 -1.48359,2.76469c-0.68047,1.02515 -1.50437,1.85347 -2.47391,2.48869c-0.96932,0.63477 -2.20532,1.1672 -3.70969,1.59694c-1.5061,0.43017 -3.20517,0.64514 -5.10247,0.64514c-1.0715,0 -1.99807,-0.38929 -2.78212,-1.16763c-0.8241,-0.81903 -1.52605,-1.8429 -2.10255,-3.07129c-0.5772,-1.22898 -0.97937,-2.29401 -1.2064,-3.19537c-0.22662,-0.90106 -0.48456,-2.15059 -0.77191,-3.74766c-0.37225,-1.72114 -0.64916,-2.95937 -0.83584,-3.71696c-0.18517,-0.75769 -0.54679,-1.75085 -1.08214,-2.9794c-0.53645,-1.22935 -1.17457,-2.21174 -1.91667,-2.94949c-1.35995,-1.35142 -3.44133,-3.80911 -6.24472,-7.37227c-2.02025,-2.62116 -4.10153,-5.09909 -6.24472,-7.43381c-2.14361,-2.33531 -3.70971,-3.54341 -4.6988,-3.62549c-1.02965,-0.08179 -1.91608,-0.50157 -2.65808,-1.25967c-0.7422,-0.75779 -1.11315,-1.64883 -1.11315,-2.67252v-39.38267c0,-1.06498 0.39132,-1.97597 1.17458,-2.73366c0.78284,-0.7585 1.71032,-1.15774 2.78212,-1.19883c1.44234,-0.04109 4.69859,-0.94121 9.76884,-2.70403c3.17335,-1.06328 5.65628,-1.87354 7.44941,-2.42578c1.79262,-0.55213 4.29834,-1.14656 7.51083,-1.78217c3.2155,-0.63462 6.1828,-0.95298 8.90249,-0.95298h1.05132h4.6992h2.2253c5.48315,0.08178 9.54142,1.67985 12.18032,4.79201c2.38989,2.82651 3.39916,6.5335 3.02953,11.12104c1.60724,1.51539 2.72099,3.43958 3.33833,5.77491c0.69985,2.49707 0.69985,4.89343 0,7.18686c1.89579,2.49858 2.78214,5.30425 2.65757,8.4173c0.00532,1.31202 -0.30311,2.8681 -0.92266,4.67093l0,0.00019l0,0l0,0l0,0l0,0l0,0z" fill="#ddd" id="svg_3"/>
            <path d="m22.32747,56.24577h-17.80577c-1.07236,0 -1.99987,-0.3893 -2.78291,-1.16765c-0.78305,-0.77793 -1.17479,-1.6996 -1.17479,-2.76461v-39.32281c0,-1.06348 0.39175,-1.98558 1.17501,-2.76459c0.7837,-0.77706 1.71119,-1.16656 2.78291,-1.16656h17.80555c1.0715,0 1.99856,0.38949 2.78205,1.16656c0.78304,0.77901 1.17458,1.70089 1.17458,2.76459v39.32281c0,1.065 -0.39174,1.98645 -1.17458,2.76461c-0.78327,0.77857 -1.71033,1.16765 -2.78205,1.16765zm-7.11047,-38.18487c-0.78305,-0.75769 -1.71033,-1.13646 -2.78205,-1.13646c-1.11308,0 -2.05097,0.37873 -2.81301,1.13646c-0.76247,0.75768 -1.1436,1.68926 -1.1436,2.79536c0,1.06477 0.38091,1.98667 1.1436,2.7646c0.76226,0.77836 1.69993,1.16807 2.81301,1.16807c1.07172,0 1.99899,-0.38972 2.78205,-1.16807c0.78326,-0.77771 1.17502,-1.6996 1.17502,-2.7646c0,-1.1061 -0.39088,-2.03746 -1.17502,-2.79536z" fill="#ddd" id="svg_4"/>
        </g>
    </g>
</svg>