<?xml version="1.0" encoding="UTF-8" standalone="no"?>
<svg viewBox="0 0 22 25" version="1.1" xmlns="http://www.w3.org/2000/svg" xmlns:xlink="http://www.w3.org/1999/xlink">
    <g id="Page-1" stroke="none" stroke-width="1" fill="none" fill-rule="evenodd">
        <g id="SVG" transform="translate(-1733.000000, -1134.000000)" fill="#B7BCC0">
            <path d="M1748.302,1138.551 C1748.04,1136.298 1746.122,1134.543 1743.8,1134.543 C1741.478,1134.543 1739.561,1136.298 1739.298,1138.551 L1734.573,1138.551 C1733.752,1138.551 1733.08,1139.223 1733.08,1140.044 C1733.08,1140.865 1733.752,1141.537 1734.573,1141.537 L1734.755,1141.537 C1734.751,1141.602 1734.745,1141.666 1734.745,1141.732 L1734.745,1155.487 C1734.745,1157.148 1736.174,1158.5 1737.931,1158.5 L1749.669,1158.5 C1751.427,1158.5 1752.855,1157.148 1752.855,1155.487 L1752.855,1141.732 C1752.855,1141.666 1752.849,1141.602 1752.845,1141.537 L1753.028,1141.537 C1753.849,1141.537 1754.521,1140.865 1754.521,1140.044 C1754.521,1139.223 1753.849,1138.551 1753.028,1138.551 L1748.302,1138.551 Z M1743.8,1136.076 C1745.275,1136.076 1746.503,1137.146 1746.753,1138.551 L1740.847,1138.551 C1741.098,1137.146 1742.325,1136.076 1743.8,1136.076 L1743.8,1136.076 Z M1751.19,1155.487 C1751.19,1156.28 1750.508,1156.925 1749.669,1156.925 L1737.931,1156.925 C1737.092,1156.925 1736.41,1156.28 1736.41,1155.487 L1736.41,1141.732 C1736.41,1141.665 1736.422,1141.601 1736.431,1141.537 L1751.169,1141.537 C1751.179,1141.601 1751.19,1141.665 1751.19,1141.732 L1751.19,1155.487 L1751.19,1155.487 Z M1740.053,1143.165 C1739.645,1143.165 1739.311,1143.499 1739.311,1143.907 L1739.311,1154.011 C1739.311,1154.419 1739.645,1154.753 1740.053,1154.753 C1740.461,1154.753 1740.796,1154.419 1740.796,1154.011 L1740.796,1143.907 C1740.796,1143.499 1740.461,1143.165 1740.053,1143.165 M1743.8,1143.165 C1743.392,1143.165 1743.058,1143.499 1743.058,1143.907 L1743.058,1154.011 C1743.058,1154.419 1743.392,1154.753 1743.8,1154.753 C1744.208,1154.753 1744.543,1154.419 1744.543,1154.011 L1744.543,1143.907 C1744.543,1143.499 1744.208,1143.165 1743.8,1143.165 M1747.547,1143.165 C1747.139,1143.165 1746.805,1143.499 1746.805,1143.907 L1746.805,1154.011 C1746.805,1154.419 1747.139,1154.753 1747.547,1154.753 C1747.956,1154.753 1748.29,1154.419 1748.29,1154.011 L1748.29,1143.907 C1748.29,1143.499 1747.956,1143.165 1747.547,1143.165" id="trash_can"></path>
        </g>
    </g>
</svg>